<?xml version="1.0" encoding="utf-8"?>
<!DOCTYPE svg PUBLIC "-//W3C//DTD SVG 1.1//EN" "http://www.w3.org/Graphics/SVG/1.1/DTD/svg11.dtd">
<svg version="1.1" id="Ebene_1" xmlns="http://www.w3.org/2000/svg" xmlns:xlink="http://www.w3.org/1999/xlink" x="0px" y="0px"
	 width="67px" height="77px" viewBox="0 0 67 77" enable-background="new 0 0 67 77" xml:space="preserve">
<path fill="#4B4B4B" d="M13.7,9.68C22.13,1.14,36.35-0.93,46.68,5.26C56.5,11.04,62.82,21.82,64.061,33.03
	c0.779,7.3,0.41,14.649,0.469,21.97c-0.059,6.73,0.301,13.47-0.289,20.18C43.5,75.37,22.74,75.52,2,75.17
	C1.87,63.109,2.09,51.05,1.93,38.99C1.52,28.16,5.78,17.14,13.7,9.68z"/>
<path fill="#FFFFFF" d="M11.58,13.52c7.49-9.65,21.74-13.63,32.85-8.05c10.19,4.561,16.211,15.24,18.09,25.87
	c0.92,6.18,0.51,12.44,0.58,18.66c-0.109,7.95,0.26,15.91-0.18,23.859C43,74.08,23.06,74.07,3.14,73.87
	C2.87,62.9,3.08,51.939,3,40.98C2.83,31.24,5.35,21.18,11.58,13.52z"/>
<path stroke="#4B4B4B" d="M33.058,2.146L3.33,74.164l0,0"/>
<path stroke="#4B4B4B" d="M33.309,2.02l29.619,72.46l0,0"/>
</svg>
