<?xml version="1.0" encoding="utf-8"?>
<!DOCTYPE svg PUBLIC "-//W3C//DTD SVG 1.1//EN" "http://www.w3.org/Graphics/SVG/1.1/DTD/svg11.dtd">
<svg version="1.1" id="Ebene_1" xmlns="http://www.w3.org/2000/svg" xmlns:xlink="http://www.w3.org/1999/xlink" x="0px" y="0px"
	 width="60px" height="62px" viewBox="0 0 60 62" enable-background="new 0 0 60 62" xml:space="preserve">
<path fill="#4B4B4B" d="M6.09,38.74C7.91,23.39,16.68,8.43,30.24,1.28C42.48,6.9,50.58,19.55,53.77,32.65
	c2.49,8.939,1.57,18.31,1.65,27.5C43.71,54.359,30.24,53.84,17.6,55.97c-4.12,0.64-7.94,2.41-11.76,4.07
	c0.02-7.101-0.26-14.22,0.25-21.31V38.74z"/>
<path fill="#FFFFFF" d="M7.54,37.92C9.25,23.83,17.48,10.09,30.2,3.53c11.489,5.16,19.1,16.77,22.1,28.8
	c2.33,8.21,1.47,16.82,1.55,25.25c-11-5.311-23.649-5.79-35.51-3.83c-3.87,0.59-7.46,2.21-11.04,3.74
	C7.32,50.97,7.05,44.43,7.54,37.92z"/>
<text transform="matrix(1 0 0 1 14.4199 41.5703)" fill="#4B4B4B" font-family="'ArialMT'" font-size="12">k/n</text>
</svg>
